<?xml version="1.0" standalone="no"?>
<!DOCTYPE svg PUBLIC "-//W3C//DTD SVG 20010904//EN"
 "http://www.w3.org/TR/2001/REC-SVG-20010904/DTD/svg10.dtd">
<svg version="1.0" xmlns="http://www.w3.org/2000/svg"
 width="512.000000pt" height="512.000000pt" viewBox="0 0 512.000000 512.000000"
 preserveAspectRatio="xMidYMid meet">
<metadata>
Created by potrace 1.15, written by Peter Selinger 2001-2017
</metadata>
<g transform="translate(0.000000,512.000000) scale(0.100000,-0.100000)"
fill="#D27357" stroke="none">
<path d="M1910 5073 c-1 -53 -22 -213 -34 -253 -31 -106 -51 -130 -254 -322
-70 -67 -128 -151 -151 -220 -34 -102 -30 -227 8 -314 28 -61 104 -139 167
-169 83 -39 84 -39 83 63 -2 157 24 202 177 313 195 140 294 307 294 493 0 63
-23 164 -49 215 -30 57 -118 149 -175 182 -60 34 -66 35 -66 12z"/>
<path d="M2730 5038 c0 -90 -27 -226 -58 -291 -20 -43 -50 -82 -98 -127 -156
-147 -215 -212 -244 -270 -79 -156 -79 -307 0 -430 39 -61 79 -96 145 -126 79
-37 81 -36 77 51 -5 88 9 155 43 206 13 20 76 75 139 123 208 155 288 292 287
494 0 131 -54 257 -145 338 -48 44 -113 84 -136 84 -5 0 -10 -23 -10 -52z"/>
<path d="M4895 4784 c-22 -8 -130 -59 -240 -114 -412 -204 -773 -445 -1112
-742 -127 -111 -376 -357 -441 -436 l-44 -52 203 0 202 0 121 118 c396 384
844 684 1424 951 94 43 115 70 110 137 -5 64 -37 110 -92 135 -49 22 -77 23
-131 3z"/>
<path d="M3 3153 c19 -452 170 -899 435 -1288 104 -152 178 -242 307 -370 337
-338 770 -578 1225 -680 214 -48 321 -59 570 -60 325 0 526 31 815 126 159 52
415 172 545 255 504 321 879 798 1064 1354 78 237 114 429 131 708 l7 102
-2553 0 -2552 0 6 -147z"/>
<path d="M0 250 l0 -220 2550 0 2550 0 0 220 0 220 -2550 0 -2550 0 0 -220z"/>
</g>
</svg>
