<?xml version="1.0" standalone="no"?>
<!DOCTYPE svg PUBLIC "-//W3C//DTD SVG 20010904//EN"
 "http://www.w3.org/TR/2001/REC-SVG-20010904/DTD/svg10.dtd">
<svg version="1.0" xmlns="http://www.w3.org/2000/svg"
 width="512.000000pt" height="512.000000pt" viewBox="0 0 512.000000 512.000000"
 preserveAspectRatio="xMidYMid meet">
<metadata>
Created by potrace 1.15, written by Peter Selinger 2001-2017
</metadata>
<g transform="translate(0.000000,512.000000) scale(0.100000,-0.100000)"
fill="#D27357" stroke="none">
<path d="M2521 5094 c-11 -14 -36 -79 -57 -145 l-37 -119 -141 0 c-153 0 -178
-7 -196 -56 -18 -47 6 -79 121 -164 60 -45 109 -85 109 -90 0 -5 -18 -67 -41
-137 -39 -122 -40 -129 -25 -160 18 -37 56 -51 97 -36 14 6 72 43 127 82 68
49 106 70 115 64 7 -4 58 -41 114 -80 106 -77 138 -87 180 -58 38 27 37 63 -7
199 -23 69 -39 130 -36 135 4 5 51 41 105 80 113 82 119 87 127 128 4 23 0 36
-19 59 l-25 29 -147 5 -148 5 -41 122 c-23 67 -50 131 -61 143 -27 30 -88 27
-114 -6z"/>
<path d="M1582 4818 c-12 -13 -39 -75 -62 -144 l-41 -122 -144 -4 c-136 -3
-145 -4 -169 -27 -25 -24 -33 -61 -20 -95 4 -11 178 -147 231 -181 1 0 -15
-55 -37 -120 -46 -139 -49 -176 -18 -205 43 -40 83 -28 202 60 60 43 114 76
120 73 6 -4 53 -38 105 -76 107 -79 135 -90 178 -72 56 24 56 61 3 220 -22 65
-36 121 -32 124 79 53 215 158 222 171 13 24 13 66 0 90 -15 29 -73 40 -207
40 l-121 0 -42 126 c-24 71 -51 134 -63 145 -28 26 -77 25 -105 -3z"/>
<path d="M3475 4818 c-19 -17 -36 -56 -63 -143 l-38 -120 -146 -5 c-138 -5
-148 -6 -172 -29 -31 -29 -35 -79 -8 -109 9 -11 62 -53 117 -92 55 -40 101
-74 102 -75 2 0 -16 -59 -38 -130 -54 -169 -45 -214 42 -215 28 0 53 13 115
58 43 32 93 67 110 80 l31 21 109 -79 c103 -76 122 -85 169 -81 29 3 55 38 55
75 0 17 -18 85 -39 150 l-39 119 21 17 c12 9 61 44 110 79 92 66 107 84 107
126 0 70 -38 85 -211 85 l-127 0 -42 126 c-24 71 -51 134 -63 145 -28 25 -70
24 -102 -3z"/>
<path d="M1138 3723 c-55 -18 -121 -71 -146 -117 -16 -29 -17 -142 -20 -1695
-3 -1871 -8 -1728 73 -1819 86 -96 60 -92 623 -92 l492 0 0 335 0 335 410 0
410 0 0 -335 0 -335 504 0 504 0 48 33 c36 24 56 48 79 92 l30 60 0 1700 0
1700 -22 42 c-27 50 -73 87 -128 102 -28 8 -453 11 -1425 10 -1234 0 -1390 -2
-1432 -16z m812 -828 l0 -205 -290 0 -290 0 0 205 0 205 290 0 290 0 0 -205z
m920 0 l0 -205 -300 0 -300 0 0 205 0 205 300 0 300 0 0 -205z m880 0 l0 -205
-280 0 -280 0 0 205 0 205 280 0 280 0 0 -205z m-1800 -800 l0 -215 -290 0
-290 0 0 215 0 215 290 0 290 0 0 -215z m920 0 l0 -215 -300 0 -300 0 0 215 0
215 300 0 300 0 0 -215z m880 0 l0 -215 -280 0 -280 0 0 215 0 215 280 0 280
0 0 -215z m-1800 -810 l0 -215 -290 0 -290 0 0 215 0 215 290 0 290 0 0 -215z
m920 0 l0 -215 -300 0 -300 0 0 215 0 215 300 0 300 0 0 -215z m880 0 l0 -215
-280 0 -280 0 0 215 0 215 280 0 280 0 0 -215z"/>
</g>
</svg>
