<?xml version="1.0" standalone="no"?>
<!DOCTYPE svg PUBLIC "-//W3C//DTD SVG 20010904//EN"
 "http://www.w3.org/TR/2001/REC-SVG-20010904/DTD/svg10.dtd">
<svg version="1.0" xmlns="http://www.w3.org/2000/svg"
 width="512.000000pt" height="512.000000pt" viewBox="0 0 512.000000 512.000000"
 preserveAspectRatio="xMidYMid meet">
<metadata>
Created by potrace 1.15, written by Peter Selinger 2001-2017
</metadata>
<g transform="translate(0.000000,512.000000) scale(0.100000,-0.100000)"
fill="#D27357" stroke="none">
<path d="M3538 4751 c-108 -292 -128 -363 -118 -426 9 -56 44 -138 89 -212 17
-28 31 -52 31 -55 0 -3 -38 -8 -85 -12 -116 -8 -182 -35 -238 -95 -84 -90
-121 -194 -98 -279 10 -36 23 -51 79 -92 68 -51 154 -90 196 -90 13 0 75 15
137 34 62 19 115 34 116 32 1 -1 -29 -33 -68 -71 -39 -38 -77 -82 -85 -98 -28
-53 4 -83 59 -56 12 6 56 47 98 92 l77 81 -35 -119 c-51 -176 -38 -247 64
-356 96 -102 229 -90 358 32 73 69 95 128 95 250 0 50 3 89 8 87 271 -138 283
-140 467 -73 197 71 427 168 432 182 9 23 -88 143 -161 201 -87 69 -205 132
-306 163 -79 24 -137 27 -355 19 -122 -5 -185 3 -185 25 0 17 121 77 204 100
46 13 77 16 143 10 79 -6 85 -6 81 12 -3 16 -13 18 -88 16 -66 -1 -111 -10
-199 -37 -63 -20 -117 -34 -119 -32 -2 2 11 57 28 121 36 135 48 241 31 273
-23 43 -30 21 -28 -90 2 -101 -1 -121 -25 -187 -45 -121 -76 -162 -94 -124 -4
10 -9 106 -10 215 -1 117 -7 217 -14 249 -32 133 -104 267 -201 373 -57 61
-168 146 -193 146 -6 0 -46 -94 -88 -209z"/>
<path d="M1095 4123 c-577 -46 -1060 -88 -1072 -93 -20 -8 -23 -17 -23 -59 0
-28 32 -444 70 -925 39 -482 70 -884 70 -895 0 -10 8 -29 18 -41 l18 -23 400
32 c219 17 422 34 450 37 l52 6 -6 167 c-4 131 -1 190 12 272 26 157 101 365
177 491 l22 36 -46 69 c-56 84 -147 185 -191 212 -85 53 -159 5 -238 -154 -56
-112 -140 -388 -164 -543 -4 -23 -11 -45 -15 -48 -5 -3 -77 -11 -159 -17 -148
-12 -150 -12 -151 8 0 11 -21 281 -47 601 l-47 580 910 72 c500 40 915 73 921
72 8 0 14 -42 19 -120 4 -66 10 -122 14 -124 8 -5 157 27 166 36 4 4 2 71 -4
150 -23 281 -25 289 -79 287 -15 -1 -499 -39 -1077 -86z"/>
<path d="M591 3744 c-20 -9 -37 -26 -44 -44 -8 -21 -19 -30 -44 -35 -36 -7
-89 -46 -98 -74 -9 -29 12 -69 47 -91 31 -19 47 -20 225 -18 177 3 194 5 220
24 67 51 48 125 -41 155 -30 10 -52 25 -59 40 -26 53 -132 75 -206 43z"/>
<path d="M1384 3745 c-18 -8 -38 -27 -45 -44 -9 -21 -22 -31 -45 -36 -18 -3
-44 -15 -59 -27 -55 -43 -52 -101 7 -138 31 -19 47 -20 225 -18 177 3 194 5
220 24 67 51 48 125 -41 155 -30 10 -52 25 -59 40 -26 52 -132 75 -203 44z"/>
<path d="M2320 3674 c-180 -23 -334 -69 -479 -144 -340 -176 -585 -501 -668
-890 -22 -104 -25 -391 -5 -485 79 -363 271 -650 565 -842 77 -51 259 -143
283 -143 2 0 4 26 4 59 0 52 -3 61 -26 75 -27 18 -95 118 -138 204 -31 60 -31
60 74 37 94 -21 90 -23 90 43 l0 58 -87 18 c-156 32 -153 29 -179 121 -29 99
-60 273 -51 282 4 3 51 -1 105 -11 53 -9 123 -20 155 -25 l57 -8 0 58 c0 66
15 57 -135 80 -38 5 -100 17 -137 25 l-68 16 0 157 0 158 83 17 c92 20 250 46
285 46 l22 0 0 -220 0 -220 59 0 59 0 -2 224 c0 123 2 227 5 231 9 8 455 9
468 0 7 -4 11 -58 11 -146 l0 -139 61 0 62 0 -8 140 c-4 80 -3 140 2 140 27 0
250 -33 323 -48 l85 -18 6 -119 c4 -66 7 -153 8 -193 l1 -74 108 4 c102 3 111
5 194 45 l87 41 -6 -44 -6 -44 56 0 c31 0 58 3 61 8 2 4 10 63 16 131 57 589
-313 1149 -882 1335 -41 13 -113 31 -159 40 -87 16 -297 28 -359 20z m134
-161 c26 -53 96 -236 96 -253 0 -6 -45 -10 -125 -10 -98 0 -125 3 -125 13 0
37 107 296 122 297 4 0 18 -21 32 -47z m-203 -30 c-16 -38 -41 -107 -56 -155
-15 -49 -32 -88 -39 -88 -30 -1 -218 -31 -276 -44 -35 -8 -65 -14 -66 -13 -5
5 94 195 123 238 28 40 40 48 110 72 79 27 184 55 215 56 15 1 13 -8 -11 -66z
m470 42 c160 -40 198 -62 246 -136 44 -67 107 -199 99 -206 -3 -3 -44 4 -93
15 -48 11 -134 26 -191 33 l-102 12 -21 69 c-11 38 -36 105 -55 149 -18 45
-34 83 -34 85 0 10 63 2 151 -21z m-982 -217 c-7 -13 -25 -54 -39 -93 -19 -47
-35 -74 -51 -82 -37 -19 -161 -73 -166 -73 -20 0 139 175 210 232 57 44 62 46
46 16z m1483 -49 c50 -44 168 -179 168 -193 0 -3 -17 2 -37 12 -21 11 -62 27
-90 37 -29 11 -53 23 -53 27 0 5 -15 46 -34 93 -18 48 -27 81 -20 77 7 -4 37
-28 66 -53z m-670 -125 c35 -6 37 -9 48 -57 19 -88 38 -210 45 -283 l7 -71
-223 -5 c-123 -3 -226 -4 -228 -2 -6 5 21 218 40 313 10 51 19 95 19 97 0 10
237 17 292 8z m-416 -36 c-21 -98 -29 -148 -42 -253 -7 -66 -14 -125 -14 -131
0 -7 -39 -16 -97 -24 -54 -6 -140 -20 -192 -31 -52 -11 -96 -17 -99 -14 -7 7
34 255 56 335 l17 65 85 22 c88 23 228 50 268 52 18 1 21 -3 18 -21z m710 7
c149 -26 264 -57 273 -74 23 -45 80 -365 68 -378 -4 -3 -57 4 -119 15 -62 12
-142 24 -178 27 -127 12 -116 1 -130 123 -11 102 -35 247 -46 285 -7 22 14 22
132 2z m-1221 -137 c-3 -13 -9 -43 -15 -68 -6 -25 -17 -99 -25 -165 -9 -66
-19 -123 -23 -126 -4 -3 -38 -16 -77 -28 -38 -12 -100 -36 -138 -53 -37 -17
-70 -29 -73 -25 -9 9 23 164 53 255 27 82 27 83 93 127 62 41 185 105 203 105
4 0 5 -10 2 -22z m1775 -47 c108 -56 131 -86 169 -223 17 -62 42 -198 36 -198
-1 0 -35 15 -76 34 -41 18 -107 44 -146 57 -40 13 -73 28 -73 34 0 27 -31 254
-40 290 -18 75 -16 77 38 52 26 -13 67 -33 92 -46z m85 -496 c28 -12 65 -31
83 -42 l32 -20 -58 -31 c-45 -24 -207 -92 -219 -92 -2 0 -3 56 -3 125 l0 125
58 -22 c31 -11 80 -31 107 -43z m-1923 -69 l3 -124 -85 30 c-47 17 -114 45
-150 63 l-65 33 88 42 c79 37 179 77 199 79 4 1 8 -55 10 -123z m-210 -171
c35 -14 99 -38 143 -53 l79 -27 17 -110 c9 -60 24 -139 33 -175 8 -35 14 -65
13 -67 -5 -4 -175 85 -219 115 -53 36 -78 86 -114 230 -25 98 -27 112 -19 112
2 0 33 -11 67 -25z m338 -588 c0 -4 15 -42 34 -83 19 -41 32 -74 28 -74 -18 0
-181 157 -230 221 -8 11 17 4 78 -20 50 -19 90 -39 90 -44z"/>
<path d="M3863 2523 c4 -38 7 -132 7 -210 0 -132 1 -143 18 -143 22 0 47 -25
56 -57 7 -23 8 -23 218 -23 l210 0 -6 54 c-28 218 -163 379 -362 430 -34 9
-81 16 -104 16 l-43 0 6 -67z"/>
<path d="M2500 2050 l0 -90 -125 0 -125 0 0 -232 c0 -128 -3 -533 -7 -900 l-6
-668 1320 0 1321 0 6 342 c3 189 7 594 10 901 l4 557 -924 0 -924 0 0 90 0 90
-275 0 -275 0 0 -90z m2151 -247 c29 -17 59 -67 59 -98 0 -31 -30 -81 -59 -98
-24 -14 -55 -17 -176 -17 -134 0 -150 2 -177 21 -67 48 -69 131 -7 184 30 24
35 25 181 25 123 0 155 -3 179 -17z m-1246 -87 c113 -36 197 -88 290 -181 137
-136 205 -301 205 -494 0 -119 -19 -203 -70 -306 -70 -144 -168 -245 -310
-320 -193 -101 -429 -104 -627 -9 -137 65 -251 177 -322 313 -62 122 -75 177
-75 326 0 113 4 140 26 208 81 244 283 426 533 481 99 22 246 14 350 -18z"/>
<path d="M3125 1534 c-103 -16 -209 -68 -279 -139 -101 -100 -147 -209 -148
-345 -3 -283 211 -500 493 -500 272 0 489 216 489 488 0 221 -126 400 -333
471 -58 20 -169 32 -222 25z"/>
<path d="M876 1989 c-58 -69 -237 -391 -415 -746 -50 -101 -91 -185 -91 -188
0 -3 58 -5 129 -5 150 0 191 -6 191 -28 0 -35 92 -202 155 -279 179 -223 526
-421 905 -516 103 -26 323 -67 361 -67 18 0 19 10 19 210 0 209 0 210 -22 214
-13 2 -74 14 -136 25 -305 57 -588 190 -757 358 l-69 68 127 3 c70 1 127 5
127 7 0 2 -48 89 -106 192 -208 368 -330 619 -356 733 -6 27 -17 50 -24 50 -7
0 -24 -14 -38 -31z"/>
</g>
</svg>
